<svg width="40" height="40" viewBox="0 0 40 40" fill="none" xmlns="http://www.w3.org/2000/svg">
<path d="M30.55 22.9625C30.3745 22.8539 30.231 22.7006 30.1344 22.5183C30.0377 22.336 29.9913 22.1312 30 21.925V17.8625C30.0077 15.824 29.4205 13.8276 28.3104 12.1179C27.2002 10.4083 25.6153 9.05969 23.75 8.2375C23.6136 7.35237 23.1649 6.54527 22.4851 5.96222C21.8053 5.37916 20.9393 5.05865 20.0437 5.05865C19.1482 5.05865 18.2821 5.37916 17.6024 5.96222C16.9226 6.54527 16.4739 7.35237 16.3375 8.2375C15.1223 8.72151 14.0139 9.43923 13.075 10.35C12.106 11.2722 11.3339 12.3812 10.8054 13.6101C10.2769 14.839 10.0029 16.1623 9.99998 17.5V21.925C10.0086 22.1312 9.96227 22.336 9.86561 22.5183C9.76895 22.7006 9.6255 22.8539 9.44998 22.9625C8.75669 23.3289 8.1957 23.9034 7.84591 24.6052C7.49612 25.307 7.37514 26.1008 7.49998 26.875C7.67404 27.7713 8.16003 28.577 8.87169 29.1491C9.58335 29.7212 10.4747 30.0227 11.3875 30H15C15 31.3261 15.5268 32.5978 16.4644 33.5355C17.4021 34.4732 18.6739 35 20 35C21.3261 35 22.5978 34.4732 23.5355 33.5355C24.4732 32.5978 25 31.3261 25 30H28.6125C29.5253 30.0227 30.4166 29.7212 31.1283 29.1491C31.8399 28.577 32.3259 27.7713 32.5 26.875C32.6248 26.1008 32.5038 25.307 32.1541 24.6052C31.8043 23.9034 31.2433 23.3289 30.55 22.9625V22.9625ZM20 32.5C19.3369 32.5 18.7011 32.2366 18.2322 31.7678C17.7634 31.2989 17.5 30.663 17.5 30H22.5C22.5 30.663 22.2366 31.2989 21.7677 31.7678C21.2989 32.2366 20.663 32.5 20 32.5V32.5ZM28.6125 27.5H11.3875C11.0735 27.5155 10.7637 27.4219 10.5109 27.235C10.258 27.0482 10.0775 26.7797 9.99998 26.475C9.9526 26.2151 9.98877 25.9469 10.1033 25.7089C10.2178 25.4708 10.4048 25.2752 10.6375 25.15C11.208 24.8281 11.6817 24.3591 12.0092 23.7919C12.3368 23.2247 12.5063 22.58 12.5 21.925V17.5C12.499 16.4954 12.6999 15.5008 13.0907 14.5754C13.4815 13.6499 14.0543 12.8124 14.775 12.1125C15.3669 11.5333 16.0567 11.0636 16.8125 10.725C17.8067 10.2459 18.8964 9.99804 20 10H20.2375C21.2592 10.0356 22.2612 10.2914 23.175 10.75C24.4819 11.4211 25.5776 12.4408 26.3409 13.6961C27.1043 14.9514 27.5054 16.3934 27.5 17.8625V21.925C27.4924 22.5787 27.66 23.2226 27.9853 23.7897C28.3107 24.3568 28.7818 24.8265 29.35 25.15C29.5826 25.2726 29.7706 25.4654 29.8873 25.7011C30.004 25.9367 30.0435 26.2032 30 26.4625C29.9249 26.7695 29.7455 27.0409 29.4924 27.2302C29.2392 27.4195 28.9282 27.5148 28.6125 27.5V27.5Z" fill="#2E2E2E"/>
</svg>
