<svg width="40" height="40" viewBox="0 0 40 40" fill="none" xmlns="http://www.w3.org/2000/svg">
<path d="M24.6438 26.3562L24.5688 23.7C25.1313 23.5937 25.9188 22.6437 26.2375 22.1375L25.1625 19.725C24.5688 19.6312 23.3375 19.575 22.8813 19.925L20.9563 18.0937C21.275 17.625 21.1625 16.4 21.025 15.8187L18.5563 14.875C18.075 15.2187 17.1688 16.0562 17.0938 16.625L14.4375 16.6937C14.3313 16.1312 13.375 15.3562 12.875 15.0312L10.4625 16.1062C10.3688 16.7 10.3125 17.9312 10.6625 18.3875L8.83755 20.3125C8.36255 19.9937 7.13755 20.1125 6.5563 20.2437L5.61255 22.7062C5.9563 23.2 6.7938 24.0937 7.3563 24.175L7.4313 26.8312C6.87505 26.9437 6.0938 27.8875 5.7688 28.3937L6.85005 30.8062C7.43755 30.9 8.6688 30.95 9.12505 30.6125L11.05 32.4312C10.7313 32.9 10.85 34.1312 10.9813 34.7125L13.4438 35.6562C13.9313 35.3062 14.8375 34.4687 14.9125 33.9062L17.5688 33.8312C17.6813 34.4 18.625 35.175 19.1375 35.4937L21.5438 34.425C21.6438 33.825 21.6875 32.6 21.35 32.1437L23.1688 30.2125C23.6438 30.5375 24.8688 30.4187 25.4563 30.2875L26.3938 27.8187C26.0438 27.3375 25.2125 26.4375 24.6438 26.3562ZM18.8188 26.3375C18.6062 26.895 18.233 27.3769 17.7465 27.7224C17.26 28.0678 16.682 28.2612 16.0855 28.2781C15.4891 28.295 14.9011 28.1347 14.3957 27.8174C13.8904 27.5001 13.4906 27.0401 13.2467 26.4955C13.0028 25.951 12.9259 25.3463 13.0257 24.7581C13.1254 24.1698 13.3974 23.6243 13.8072 23.1906C14.217 22.7569 14.7462 22.4545 15.3278 22.3215C15.9095 22.1886 16.5175 22.2311 17.075 22.4437C17.4456 22.5844 17.7847 22.7969 18.0729 23.0689C18.3612 23.3408 18.593 23.667 18.755 24.0287C18.917 24.3905 19.006 24.7806 19.0169 25.1768C19.0279 25.5729 18.9606 25.9674 18.8188 26.3375ZM34.375 9.16249C34.0813 8.91874 33.3875 8.48749 33.0438 8.59999L31.9875 6.79999C32.25 6.55624 32.2125 5.73749 32.1438 5.36874L30.3375 4.34374C29.9813 4.47499 29.2626 4.86249 29.1875 5.21249L27.1 5.23124C27.0188 4.88124 26.2938 4.50624 25.9375 4.37499L24.15 5.43124C24.0875 5.79999 24.0625 6.61874 24.325 6.86249L23.3 8.67499C22.95 8.56874 22.2625 9.01249 21.975 9.25624L21.9938 11.3312C22.2875 11.575 22.9813 12 23.325 11.8937L24.3813 13.6937C24.1188 13.9375 24.1563 14.7562 24.225 15.125L26.0313 16.15C26.3813 16.0187 27.1 15.6312 27.1813 15.2812L29.2625 15.2625C29.35 15.6125 30.075 15.9875 30.4313 16.1187L32.2188 15.0625C32.2813 14.6875 32.3063 13.875 32.0375 13.6312L33.0688 11.8187C33.4125 11.9187 34.1 11.4812 34.3876 11.2375L34.375 9.16249ZM28.1813 11.8812C27.8583 11.8806 27.5428 11.7843 27.2745 11.6045C27.0062 11.4247 26.7972 11.1694 26.6739 10.8709C26.5506 10.5724 26.5184 10.244 26.5816 9.92725C26.6448 9.61051 26.8004 9.31958 27.0288 9.09119C27.2571 8.86281 27.5481 8.70721 27.8648 8.64405C28.1816 8.58089 28.5099 8.61299 28.8084 8.73631C29.1069 8.85962 29.3622 9.06862 29.5421 9.33691C29.7219 9.6052 29.8182 9.92076 29.8188 10.2437C29.8193 10.4589 29.7773 10.6721 29.6952 10.871C29.613 11.0699 29.4924 11.2506 29.3403 11.4027C29.1881 11.5549 29.0074 11.6755 28.8085 11.7576C28.6096 11.8397 28.3965 11.8817 28.1813 11.8812Z" fill="#2E2E2E"/>
</svg>
