<svg width="33" height="32" viewBox="0 0 33 32" fill="none" xmlns="http://www.w3.org/2000/svg">
<path d="M27.4334 10.6267C27.049 10.5483 26.6962 10.3586 26.4188 10.0812C26.1414 9.80384 25.9518 9.45102 25.8734 9.06667C25.8119 8.7655 25.6483 8.49483 25.4101 8.30045C25.172 8.10608 24.8741 7.99994 24.5667 8H12.5V9.33333C12.5 9.51014 12.4298 9.67971 12.3048 9.80474C12.1798 9.92976 12.0102 10 11.8334 10C11.6566 10 11.487 9.92976 11.362 9.80474C11.2369 9.67971 11.1667 9.51014 11.1667 9.33333V8H9.76671C9.45933 7.99994 9.16138 8.10608 8.92327 8.30045C8.68516 8.49483 8.52152 8.7655 8.46004 9.06667C8.38165 9.45102 8.19197 9.80384 7.91459 10.0812C7.63722 10.3586 7.2844 10.5483 6.90004 10.6267C6.59888 10.6881 6.3282 10.8518 6.13383 11.0899C5.93945 11.328 5.83331 11.626 5.83337 11.9333V21.4C5.83331 21.7074 5.93945 22.0053 6.13383 22.2434C6.3282 22.4816 6.59888 22.6452 6.90004 22.7067C7.2844 22.7851 7.63722 22.9747 7.91459 23.2521C8.19197 23.5295 8.38165 23.8823 8.46004 24.2667C8.52152 24.5678 8.68516 24.8385 8.92327 25.0329C9.16138 25.2273 9.45933 25.3334 9.76671 25.3333H11.1667V24C11.1667 23.8232 11.2369 23.6536 11.362 23.5286C11.487 23.4036 11.6566 23.3333 11.8334 23.3333C12.0102 23.3333 12.1798 23.4036 12.3048 23.5286C12.4298 23.6536 12.5 23.8232 12.5 24V25.3333H24.5667C24.8741 25.3334 25.172 25.2273 25.4101 25.0329C25.6483 24.8385 25.8119 24.5678 25.8734 24.2667C25.9518 23.8823 26.1414 23.5295 26.4188 23.2521C26.6962 22.9747 27.049 22.7851 27.4334 22.7067C27.7345 22.6452 28.0052 22.4816 28.1996 22.2434C28.394 22.0053 28.5001 21.7074 28.5 21.4V11.9333C28.5001 11.626 28.394 11.328 28.1996 11.0899C28.0052 10.8518 27.7345 10.6881 27.4334 10.6267ZM12.5 21.4333C12.5 21.6101 12.4298 21.7797 12.3048 21.9047C12.1798 22.0298 12.0102 22.1 11.8334 22.1C11.6566 22.1 11.487 22.0298 11.362 21.9047C11.2369 21.7797 11.1667 21.6101 11.1667 21.4333V19.9667C11.1667 19.7899 11.2369 19.6203 11.362 19.4953C11.487 19.3702 11.6566 19.3 11.8334 19.3C12.0102 19.3 12.1798 19.3702 12.3048 19.4953C12.4298 19.6203 12.5 19.7899 12.5 19.9667V21.4333ZM12.5 17.4C12.5 17.5768 12.4298 17.7464 12.3048 17.8714C12.1798 17.9964 12.0102 18.0667 11.8334 18.0667C11.6566 18.0667 11.487 17.9964 11.362 17.8714C11.2369 17.7464 11.1667 17.5768 11.1667 17.4V15.9333C11.1667 15.7565 11.2369 15.587 11.362 15.4619C11.487 15.3369 11.6566 15.2667 11.8334 15.2667C12.0102 15.2667 12.1798 15.3369 12.3048 15.4619C12.4298 15.587 12.5 15.7565 12.5 15.9333V17.4ZM12.5 13.3653C12.5 13.5421 12.4298 13.7117 12.3048 13.8367C12.1798 13.9618 12.0102 14.032 11.8334 14.032C11.6566 14.032 11.487 13.9618 11.362 13.8367C11.2369 13.7117 11.1667 13.5421 11.1667 13.3653V11.8987C11.1667 11.7219 11.2369 11.5523 11.362 11.4273C11.487 11.3022 11.6566 11.232 11.8334 11.232C12.0102 11.232 12.1798 11.3022 12.3048 11.4273C12.4298 11.5523 12.5 11.7219 12.5 11.8987V13.3653ZM19.8334 14C19.8312 14.5895 19.6337 15.1616 19.2718 15.627C18.91 16.0923 18.4041 16.4246 17.8334 16.572V21.3333C17.8334 21.5101 17.7631 21.6797 17.6381 21.8047C17.5131 21.9298 17.3435 22 17.1667 22C16.9899 22 16.8203 21.9298 16.6953 21.8047C16.5703 21.6797 16.5 21.5101 16.5 21.3333V16.572C15.9293 16.4246 15.4234 16.0923 15.0616 15.627C14.6997 15.1616 14.5022 14.5895 14.5 14V12C14.5 11.8232 14.5703 11.6536 14.6953 11.5286C14.8203 11.4036 14.9899 11.3333 15.1667 11.3333C15.3435 11.3333 15.5131 11.4036 15.6381 11.5286C15.7631 11.6536 15.8334 11.8232 15.8334 12V14C15.836 14.2299 15.899 14.4551 16.016 14.6531C16.133 14.851 16.2999 15.0148 16.5 15.128V12C16.5 11.8232 16.5703 11.6536 16.6953 11.5286C16.8203 11.4036 16.9899 11.3333 17.1667 11.3333C17.3435 11.3333 17.5131 11.4036 17.6381 11.5286C17.7631 11.6536 17.8334 11.8232 17.8334 12V15.128C18.0335 15.0148 18.2004 14.851 18.3174 14.6531C18.4344 14.4551 18.4974 14.2299 18.5 14V12C18.5 11.8232 18.5703 11.6536 18.6953 11.5286C18.8203 11.4036 18.9899 11.3333 19.1667 11.3333C19.3435 11.3333 19.5131 11.4036 19.6381 11.5286C19.7631 11.6536 19.8334 11.8232 19.8334 12V14ZM24.416 18.7867L22.5 19.7453V21.3333C22.5 21.5101 22.4298 21.6797 22.3048 21.8047C22.1798 21.9298 22.0102 22 21.8334 22C21.6566 22 21.487 21.9298 21.362 21.8047C21.2369 21.6797 21.1667 21.5101 21.1667 21.3333V12C21.1665 11.868 21.2054 11.7388 21.2787 11.629C21.3519 11.5191 21.4561 11.4335 21.5781 11.383C21.7001 11.3324 21.8343 11.3192 21.9638 11.345C22.0932 11.3708 22.2121 11.4345 22.3054 11.528C23.9809 13.0914 24.9991 15.2336 25.1534 17.52C25.1676 17.7801 25.1054 18.0386 24.9744 18.2637C24.8433 18.4888 24.6492 18.6706 24.416 18.7867Z" fill="white"/>
</svg>
