<svg width="7" height="11" viewBox="0 0 7 11" fill="none" xmlns="http://www.w3.org/2000/svg">
<path d="M7.00006 5.00003C7.00082 5.13163 6.9756 5.2621 6.92583 5.38393C6.87607 5.50577 6.80274 5.61659 6.71006 5.71003L2.71006 9.71003C2.52176 9.89833 2.26636 10.0041 2.00006 10.0041C1.73376 10.0041 1.47837 9.89833 1.29006 9.71003C1.10176 9.52172 0.995972 9.26633 0.995972 9.00003C0.995972 8.73373 1.10176 8.47833 1.29006 8.29003L4.59006 5.00003L1.30006 1.71003C1.13624 1.51873 1.05063 1.27265 1.06035 1.02098C1.07007 0.7693 1.1744 0.53056 1.3525 0.352466C1.53059 0.174372 1.76933 0.0700407 2.02101 0.0603189C2.27268 0.0505981 2.51876 0.136203 2.71006 0.300029L6.71006 4.30003C6.89481 4.48629 6.99896 4.73769 7.00006 5.00003Z" fill="#F8B602"/>
</svg>
