<svg width="16" height="16" viewBox="0 0 16 16" fill="none" xmlns="http://www.w3.org/2000/svg">
<g clip-path="url(#clip0_0_236)">
<path d="M14.6344 6.64688H9.5375V1.36564C9.5375 0.609387 8.925 -0.00311279 8.16875 -0.00311279C7.4125 -0.00311279 6.8 0.609387 6.8 1.36564V6.64688H1.3625C0.6125 6.64688 0 7.25938 0 8.01563C0 8.77188 0.6125 9.38438 1.36875 9.38438H6.80625V14.6344C6.80625 15.3906 7.41875 16.0031 8.175 16.0031C8.93125 16.0031 9.54375 15.3906 9.54375 14.6344V9.38438H14.6406C15.3969 9.38438 16.0094 8.77188 16.0094 8.01563C16 7.25938 15.3906 6.64688 14.6344 6.64688Z" fill="white"/>
</g>
<defs>
<clipPath id="clip0_0_236">
<rect width="16" height="16" fill="white"/>
</clipPath>
</defs>
</svg>
