<svg width="24" height="20" viewBox="0 0 24 20" fill="none" xmlns="http://www.w3.org/2000/svg">
<path d="M23.4566 5.66892C23.1566 4.26267 22.6691 3.10017 21.8066 2.18142C20.5878 0.831421 18.9941 0.175171 17.1003 0.175171H16.8566C14.8503 0.231421 13.2003 1.03767 12.0378 2.50017C11.6066 2.01267 11.0628 1.52517 10.4441 1.15017C9.22533 0.418921 7.81908 0.118921 6.22533 0.231421C4.46283 0.418921 3.05658 1.20642 2.00658 2.50017C0.900333 3.96267 0.356583 5.61267 0.412833 7.31892C0.469083 8.91267 0.956583 10.3752 1.87533 11.7814C2.90658 13.3752 4.20033 14.5939 5.36283 15.5689C7.01283 17.0314 8.90658 18.3252 11.2878 19.6564C11.5316 19.7877 11.7191 19.8439 11.9628 19.8439C12.2066 19.8439 12.3941 19.7877 12.6378 19.6564C14.7191 18.4939 16.5378 17.2752 18.1878 15.8689C19.8941 14.4627 21.1128 13.1127 22.0878 11.6502C23.4003 9.75642 23.8128 7.80642 23.4566 5.66892Z" fill="#EB5757"/>
</svg>
