<svg width="56" height="56" viewBox="0 0 56 56" fill="none" xmlns="http://www.w3.org/2000/svg">
<rect width="56" height="56" rx="16" fill="white"/>
<path d="M16 31V37C16 38.3261 16.5268 39.5979 17.4645 40.5355C18.4021 41.4732 19.6739 42 21 42H35C36.3261 42 37.5979 41.4732 38.5355 40.5355C39.4732 39.5979 40 38.3261 40 37V31C40 29.6739 39.4732 28.4021 38.5355 27.4645C37.5979 26.5268 36.3261 26 35 26H21C19.6739 26 18.4021 26.5268 17.4645 27.4645C16.5268 28.4021 16 29.6739 16 31ZM38 31V37C38 37.7956 37.6839 38.5587 37.1213 39.1213C36.5587 39.6839 35.7956 40 35 40H21C20.2044 40 19.4413 39.6839 18.8787 39.1213C18.3161 38.5587 18 37.7956 18 37V31C18 30.2044 18.3161 29.4413 18.8787 28.8787C19.4413 28.3161 20.2044 28 21 28H35C35.7956 28 36.5587 28.3161 37.1213 28.8787C37.6839 29.4413 38 30.2044 38 31Z" fill="#2E2E2E"/>
<path d="M28 38C28.7911 38 29.5644 37.7654 30.2222 37.3259C30.88 36.8864 31.3927 36.2616 31.6955 35.5307C31.9982 34.7998 32.0774 33.9956 31.9231 33.2196C31.7688 32.4437 31.3878 31.731 30.8284 31.1716C30.269 30.6122 29.5562 30.2312 28.7803 30.0769C28.0044 29.9225 27.2001 30.0017 26.4692 30.3045C25.7383 30.6072 25.1136 31.1199 24.6741 31.7777C24.2346 32.4355 24 33.2089 24 34C24 35.0609 24.4214 36.0783 25.1715 36.8284C25.9217 37.5786 26.9391 38 28 38ZM28 32C28.3955 32 28.7822 32.1173 29.1111 32.3371C29.44 32.5568 29.6963 32.8692 29.8477 33.2346C29.9991 33.6001 30.0387 34.0022 29.9615 34.3902C29.8844 34.7781 29.6939 35.1345 29.4142 35.4142C29.1345 35.6939 28.7781 35.8844 28.3901 35.9616C28.0022 36.0387 27.6 35.9991 27.2346 35.8478C26.8691 35.6964 26.5568 35.44 26.337 35.1111C26.1173 34.7822 26 34.3956 26 34C26 33.4696 26.2107 32.9609 26.5858 32.5858C26.9608 32.2107 27.4695 32 28 32ZM28.71 14.29C28.617 14.1963 28.5064 14.1219 28.3845 14.0711C28.2627 14.0203 28.132 13.9942 28 13.9942C27.868 13.9942 27.7372 14.0203 27.6154 14.0711C27.4935 14.1219 27.3829 14.1963 27.29 14.29L23.05 18.54C22.8564 18.727 22.745 18.9832 22.7403 19.2523C22.7356 19.5214 22.838 19.7814 23.025 19.975C23.2119 20.1686 23.4682 20.28 23.7373 20.2847C24.0064 20.2894 24.2664 20.187 24.46 20L27 17.41V23C27 23.2652 27.1053 23.5196 27.2929 23.7071C27.4804 23.8946 27.7347 24 28 24C28.2652 24 28.5195 23.8946 28.7071 23.7071C28.8946 23.5196 29 23.2652 29 23V17.41L31.54 20C31.7262 20.1847 31.9776 20.2889 32.24 20.29C32.3799 20.2976 32.5199 20.2757 32.6508 20.2258C32.7817 20.1758 32.9007 20.0989 33 20C33.1862 19.8126 33.2908 19.5592 33.2908 19.295C33.2908 19.0308 33.1862 18.7774 33 18.59L28.71 14.29Z" fill="#2E2E2E"/>
</svg>
