<svg width="56" height="56" viewBox="0 0 56 56" fill="none" xmlns="http://www.w3.org/2000/svg">
<rect width="56" height="56" rx="16" fill="white"/>
<path d="M21 42H35C36.3261 42 37.5979 41.4732 38.5355 40.5355C39.4732 39.5979 40 38.3261 40 37V31C40 29.6739 39.4732 28.4021 38.5355 27.4645C37.5979 26.5268 36.3261 26 35 26H21C19.6739 26 18.4021 26.5268 17.4645 27.4645C16.5268 28.4021 16 29.6739 16 31V37C16 38.3261 16.5268 39.5979 17.4645 40.5355C18.4021 41.4732 19.6739 42 21 42ZM18 31C18 30.2044 18.3161 29.4413 18.8787 28.8787C19.4413 28.3161 20.2044 28 21 28H35C35.7956 28 36.5587 28.3161 37.1213 28.8787C37.6839 29.4413 38 30.2044 38 31V37C38 37.7956 37.6839 38.5587 37.1213 39.1213C36.5587 39.6839 35.7956 40 35 40H21C20.2044 40 19.4413 39.6839 18.8787 39.1213C18.3161 38.5587 18 37.7956 18 37V31Z" fill="#2E2E2E"/>
<path d="M28 38C28.7912 38 29.5645 37.7654 30.2223 37.3259C30.8801 36.8864 31.3928 36.2616 31.6955 35.5307C31.9983 34.7998 32.0775 33.9956 31.9232 33.2196C31.7688 32.4437 31.3879 31.731 30.8285 31.1716C30.269 30.6122 29.5563 30.2312 28.7804 30.0769C28.0045 29.9225 27.2002 30.0017 26.4693 30.3045C25.7384 30.6072 25.1137 31.1199 24.6741 31.7777C24.2346 32.4355 24 33.2089 24 34C24 35.0609 24.4215 36.0783 25.1716 36.8284C25.9217 37.5786 26.9392 38 28 38ZM28 32C28.3956 32 28.7823 32.1173 29.1112 32.3371C29.4401 32.5568 29.6964 32.8692 29.8478 33.2346C29.9992 33.6001 30.0388 34.0022 29.9616 34.3902C29.8844 34.7781 29.6939 35.1345 29.4142 35.4142C29.1345 35.6939 28.7782 35.8844 28.3902 35.9616C28.0022 36.0387 27.6001 35.9991 27.2347 35.8478C26.8692 35.6964 26.5569 35.44 26.3371 35.1111C26.1173 34.7822 26 34.3956 26 34C26 33.4696 26.2107 32.9609 26.5858 32.5858C26.9609 32.2107 27.4696 32 28 32ZM28 14C27.7348 14 27.4805 14.1054 27.2929 14.2929C27.1054 14.4804 27 14.7348 27 15V20.59L24.46 18.05C24.2687 17.8862 24.0227 17.8006 23.771 17.8103C23.5193 17.82 23.2806 17.9243 23.1025 18.1024C22.9244 18.2805 22.82 18.5193 22.8103 18.7709C22.8006 19.0226 22.8862 19.2687 23.05 19.46L27.29 23.71C27.3822 23.8 27.4908 23.8713 27.61 23.92C27.7334 23.9723 27.866 23.9992 28 23.9992C28.134 23.9992 28.2666 23.9723 28.39 23.92C28.5092 23.8713 28.6179 23.8 28.71 23.71L33 19.46C33.1639 19.2687 33.2495 19.0226 33.2397 18.7709C33.23 18.5193 33.1257 18.2805 32.9476 18.1024C32.7695 17.9243 32.5308 17.82 32.2791 17.8103C32.0274 17.8006 31.7813 17.8862 31.59 18.05L29 20.59V15C29 14.7348 28.8947 14.4804 28.7071 14.2929C28.5196 14.1054 28.2652 14 28 14Z" fill="#2E2E2E"/>
</svg>
